# xmcd
#
# Track frame offsets: 
#        150
#        37447
#        58413
#        92025
#        132064
#        164902
#
# Disc length: 2651 seconds
#
# Revision: 0
# Processed by: cddbd v1.5.2PL0 Copyright (c) Steve Scherf et al.
# Submitted via: ExactAudioCopy v0.99pb4
#
DISCID=5c0a5906
DTITLE=Eric Clapton - Just One Night CD 2
DYEAR=1997
DGENRE=Rock
TTITLE0=Double Trouble
TTITLE1=Setting Me Up
TTITLE2=Blues Power
TTITLE3=Rambling On My Mind
TTITLE4=Cocaine
TTITLE5=Further On Up The Road
EXTD=
EXTT0=
EXTT1=
EXTT2=
EXTT3=
EXTT4=
EXTT5=
PLAYORDER=
